<mxfile host="65bd71144e">
    <diagram id="w0HE7YU2_M6UtbiBao4s" name="Page-1">
        <mxGraphModel dx="4490" dy="2200" grid="1" gridSize="10" guides="1" tooltips="1" connect="1" arrows="1" fold="1" page="1" pageScale="1" pageWidth="850" pageHeight="1100" math="0" shadow="0">
            <root>
                <mxCell id="0"/>
                <mxCell id="1" parent="0"/>
                <mxCell id="2" value="&lt;span style=&quot;font-size: 17px;&quot;&gt;&lt;b&gt;Proposal Envelope&lt;/b&gt;&lt;/span&gt;" style="shape=process;whiteSpace=wrap;html=1;backgroundOutline=1;rotation=90;verticalAlign=top;labelPosition=center;verticalLabelPosition=middle;align=center;horizontal=0;size=0.17539710869177;" vertex="1" parent="1">
                    <mxGeometry x="-591.65" y="-664.1700000000001" width="254.81" height="165" as="geometry"/>
                </mxCell>
                <mxCell id="3" value="Proposal Writers" style="shape=umlActor;verticalLabelPosition=bottom;verticalAlign=top;html=1;outlineConnect=0;" vertex="1" parent="1">
                    <mxGeometry x="-680" y="-589" width="30" height="60" as="geometry"/>
                </mxCell>
                <mxCell id="4" value="Proposal Documentation" style="image;aspect=fixed;perimeter=ellipsePerimeter;html=1;align=center;shadow=0;dashed=0;spacingTop=3;image=img/lib/active_directory/documents.svg;" vertex="1" parent="1">
                    <mxGeometry x="-480" y="-584" width="33" height="50" as="geometry"/>
                </mxCell>
                <mxCell id="5" value="Process Graph" style="html=1;verticalLabelPosition=bottom;align=center;labelBackgroundColor=#ffffff;verticalAlign=top;strokeWidth=2;strokeColor=#0080F0;shadow=0;dashed=0;shape=mxgraph.ios7.icons.envelope_(empty);" vertex="1" parent="1">
                    <mxGeometry x="-480" y="-639" width="30" height="30" as="geometry"/>
                </mxCell>
                <mxCell id="6" style="edgeStyle=orthogonalEdgeStyle;rounded=0;orthogonalLoop=1;jettySize=auto;html=1;" edge="1" parent="1" source="7" target="10">
                    <mxGeometry relative="1" as="geometry">
                        <mxPoint x="-160" y="-560.9999999999998" as="targetPoint"/>
                    </mxGeometry>
                </mxCell>
                <mxCell id="7" value="Process Graph Execution" style="image;aspect=fixed;html=1;points=[];align=center;fontSize=12;image=img/lib/azure2/management_governance/Resource_Graph_Explorer.svg;" vertex="1" parent="1">
                    <mxGeometry x="-330" y="-593" width="67" height="64" as="geometry"/>
                </mxCell>
                <mxCell id="8" value="" style="endArrow=classic;html=1;rounded=0;exitX=0.475;exitY=0.038;exitDx=0;exitDy=0;exitPerimeter=0;entryX=0.5;entryY=1;entryDx=0;entryDy=0;" edge="1" parent="1" source="7" target="9">
                    <mxGeometry width="50" height="50" relative="1" as="geometry">
                        <mxPoint x="-270" y="-659" as="sourcePoint"/>
                        <mxPoint x="-300" y="-709" as="targetPoint"/>
                    </mxGeometry>
                </mxCell>
                <mxCell id="9" value="Failed" style="ellipse;whiteSpace=wrap;html=1;aspect=fixed;fillColor=#050505;verticalAlign=top;labelPosition=center;verticalLabelPosition=top;align=center;" vertex="1" parent="1">
                    <mxGeometry x="-310" y="-809" width="27" height="27" as="geometry"/>
                </mxCell>
                <mxCell id="10" value="Succeed" style="ellipse;whiteSpace=wrap;html=1;aspect=fixed;fillColor=#050505;verticalAlign=top;labelPosition=center;verticalLabelPosition=top;align=center;" vertex="1" parent="1">
                    <mxGeometry x="-130" y="-574.5" width="27" height="27" as="geometry"/>
                </mxCell>
                <mxCell id="11" value="Successful Proposals" style="sketch=0;outlineConnect=0;fontColor=#232F3E;gradientColor=none;fillColor=#7AA116;strokeColor=none;dashed=0;verticalLabelPosition=bottom;verticalAlign=top;align=center;html=1;fontSize=12;fontStyle=0;aspect=fixed;pointerEvents=1;shape=mxgraph.aws4.bucket;" vertex="1" parent="1">
                    <mxGeometry x="-50" y="-600" width="75" height="78" as="geometry"/>
                </mxCell>
                <mxCell id="12" value="Failed Proposals" style="sketch=0;outlineConnect=0;fontColor=#232F3E;gradientColor=none;fillColor=#7AA116;strokeColor=none;dashed=0;verticalLabelPosition=bottom;verticalAlign=top;align=center;html=1;fontSize=12;fontStyle=0;aspect=fixed;pointerEvents=1;shape=mxgraph.aws4.bucket;" vertex="1" parent="1">
                    <mxGeometry x="-219.25" y="-860" width="75" height="78" as="geometry"/>
                </mxCell>
                <mxCell id="13" value="Processing Proposals" style="sketch=0;outlineConnect=0;fontColor=#232F3E;gradientColor=none;fillColor=#7AA116;strokeColor=none;dashed=0;verticalLabelPosition=bottom;verticalAlign=top;align=center;html=1;fontSize=12;fontStyle=0;aspect=fixed;pointerEvents=1;shape=mxgraph.aws4.bucket;" vertex="1" parent="1">
                    <mxGeometry x="-320" y="-489" width="75" height="78" as="geometry"/>
                </mxCell>
            </root>
        </mxGraphModel>
    </diagram>
</mxfile>